<svg xmlns="http://www.w3.org/2000/svg" width="1208" height="192" fill="none"><path fill="#FF4747" d="m210.556 98.5-1.25 15c-3.834-.333-8-.5-12.5-.5-4.334 0-8 .083-11 .25-2.334 18.333-3.834 38.25-4.5 59.75h-17.5c-1-4.333-1.5-10.083-1.5-17.25s.166-13.333.5-18.5c.5-5.333 1.083-10.583 1.75-15.75.666-5.167 1-8.167 1-9-2.334-.167-7.834-.25-16.5-.25-8.667 0-14.667.167-18 .5-19.334 26-37.167 45.75-53.5 59.25-16.334 13.333-32.667 20-49 20-8 0-14.75-2.417-20.25-7.25-5.334-4.833-8-11.25-8-19.25 0-15.167 11.5-29 34.5-41.5 23.166-12.5 53.083-20.917 89.75-25.25 4.333-6.667 12.416-16.917 24.25-30.75 11.833-14 23.5-26.167 35-36.5 5-11.667 8.916-19.75 11.75-24.25 3-4.667 5.916-7 8.75-7 2.833 0 5.166 1.083 7 3.25 1.833 2.167 2.75 5 2.75 8.5 0 3.333-1.917 8.333-5.75 15-3.667 6.5-7.5 16.667-11.5 30.5-4 13.667-6.75 26.583-8.25 38.75 8.666 0 16 .75 22 2.25Zm-127.5 52.25c13.833-13.167 24.25-25.667 31.25-37.5-28 1.667-49.667 6.917-65 15.75-15.167 8.833-22.75 18.25-22.75 28.25 0 4.333 1.416 7.75 4.25 10.25 3 2.5 6.916 3.75 11.75 3.75 13 0 26.5-6.833 40.5-20.5Zm85.5-54.5c1.166-5.667 2.666-12.75 4.5-21.25 2-8.667 3.166-13.75 3.5-15.25-8 7.667-13.584 13.333-16.75 17-3.167 3.5-8.75 10.333-16.75 20.5 2.833-.167 6.25-.25 10.25-.25 4.166-.167 7.583-.333 10.25-.5 2.666-.167 4.333-.25 5-.25Zm128.142 41.25 6 5c-4 9.167-10.416 16.5-19.25 22-8.833 5.5-17.416 8.25-25.75 8.25-8.166 0-15-2.583-20.5-7.75-5.333-5.167-8-12.25-8-21.25s3.917-18.75 11.75-29.25c7.834-10.5 17.917-19.167 30.25-26 12.5-6.833 24.75-10.25 36.75-10.25 1.667 0 4.167.167 7.5.5l-.75 9.75c-18.333.833-33.583 6.417-45.75 16.75-12 10.333-18 21.333-18 33 0 4.833 1.5 8.75 4.5 11.75s6.917 4.5 11.75 4.5c7.667 0 17.5-5.667 29.5-17Zm89.112 0 6 5c-4 9.167-10.417 16.5-19.25 22-8.834 5.5-17.417 8.25-25.75 8.25-8.167 0-15-2.583-20.5-7.75-5.334-5.167-8-12.25-8-21.25s3.916-18.75 11.75-29.25c7.833-10.5 17.916-19.167 30.25-26 12.5-6.833 24.75-10.25 36.75-10.25 1.666 0 4.166.167 7.5.5l-.75 9.75c-18.334.833-33.584 6.417-45.75 16.75-12 10.333-18 21.333-18 33 0 4.833 1.5 8.75 4.5 11.75s6.916 4.5 11.75 4.5c7.666 0 17.5-5.667 29.5-17Zm132.441 6.25 5.25 4.25c-2.833 7-7.333 12.917-13.5 17.75-6 4.833-11.5 7.25-16.5 7.25-4.833 0-8.667-1.667-11.5-5-2.833-3.5-4.25-8-4.25-13.5s.917-12.583 2.75-21.25c-7.833 12.333-16.25 22-25.25 29s-16.583 10.5-22.75 10.5c-9.333 0-14-5.583-14-16.75s3.833-26.167 11.5-45c7.833-19 13.417-29.833 16.75-32.5l12 5.25c-6.833 11-12 21.833-15.5 32.5-3.5 10.667-5.25 17.833-5.25 21.5 0 3.5 1.083 6.333 3.25 8.5 2.333 2.167 5 3.25 8 3.25 6.667 0 14.917-6.083 24.75-18.25 10-12.333 20.167-30.667 30.5-55l12.75 5.75c-.333 1.333-4.167 11-11.5 29-7.167 18-10.75 28.833-10.75 32.5 0 3.5.75 6.167 2.25 8 1.667 1.833 3.25 2.75 4.75 2.75 1.667 0 2.917-.083 3.75-.25.833-.167 1.667-.5 2.5-1s1.5-.917 2-1.25c.667-.333 1.417-.917 2.25-1.75l1.75-2c.5-.333 1.167-1 2-2 1-1.167 1.667-1.917 2-2.25Zm88.75-6.25 6 5c-4 9.167-10.417 16.5-19.25 22s-17.417 8.25-25.75 8.25c-8.167 0-15-2.583-20.5-7.75-5.333-5.167-8-12.25-8-21.25s3.917-18.75 11.75-29.25 17.917-19.167 30.25-26c12.5-6.833 24.75-10.25 36.75-10.25 1.667 0 4.167.167 7.5.5l-.75 9.75c-18.333.833-33.583 6.417-45.75 16.75-12 10.333-18 21.333-18 33 0 4.833 1.5 8.75 4.5 11.75s6.917 4.5 11.75 4.5c7.667 0 17.5-5.667 29.5-17Zm187.682 3 5.25 5c-9.5 17-20.417 25.5-32.75 25.5-5 0-8.917-1.333-11.75-4-2.667-2.833-4-6.5-4-11 0-4.667 2.75-12.583 8.25-23.75s8.416-19.667 8.75-25.5c.166-2.667-.667-4.833-2.5-6.5-1.667-1.667-4-2.5-7-2.5s-6.084.75-9.25 2.25c-3 1.333-6 3.583-9 6.75-2.834 3.167-5.5 6.25-8 9.25-2.334 3-5 7.25-8 12.75-2.834 5.5-5.25 10.083-7.25 13.75-3.5 6.833-8.5 17.083-15 30.75l-15-5.25c0-.5 2.75-9.917 8.25-28.25s8.25-29.25 8.25-32.75-.834-6-2.5-7.5c-1.667-1.667-3.75-2.5-6.25-2.5-7.5 0-17.917 9.333-31.25 28-13.167 18.667-21.584 34.583-25.25 47.75l-14.25-4.75c.833-8.833 4.75-24.667 11.75-47.5 7-23 12.916-38.667 17.75-47l11.25 4c-5.167 11.5-8.75 21.25-10.75 29.25-2 7.833-3.75 16.25-5.25 25.25 14.333-20.5 26.333-34.833 36-43 9.666-8.333 18.416-12.5 26.25-12.5 8.5 0 12.75 4.25 12.75 12.75 0 3.333-1.5 9.917-4.5 19.75a4816.04 4816.04 0 0 1-6.75 23.25c23-37 43.583-55.5 61.75-55.5 4.5 0 8.083 1.417 10.75 4.25 2.666 2.667 4 6.75 4 12.25 0 5.333-3.167 14.25-9.5 26.75-6.167 12.5-9.25 20.417-9.25 23.75 0 3.167.666 5.5 2 7 1.333 1.5 3 2.25 5 2.25 4.333 0 10-4.167 17-12.5Zm86.296 3 5.75 4.5c-5.166 7.167-12.25 13.167-21.25 18-9 4.667-17.75 7-26.25 7s-15.333-2.5-20.5-7.5c-5.166-5-7.75-11.583-7.75-19.75 0-15.333 8.084-30.417 24.25-45.25 16.334-14.833 32.834-22.25 49.5-22.25 11 0 16.5 4.333 16.5 13 0 9-5.833 18.083-17.5 27.25-11.5 9.167-27.75 17.5-48.75 25 1.5 3.833 3.834 6.833 7 9 3.167 2.167 6.417 3.25 9.75 3.25 7.167 0 16.917-4.083 29.25-12.25Zm-47.25-7.5c13.5-4.667 25.084-10.5 34.75-17.5 9.667-7 14.5-13.417 14.5-19.25 0-2.167-.833-4.083-2.5-5.75-1.666-1.667-3.583-2.5-5.75-2.5-7.833 0-16.333 4.917-25.5 14.75-9 9.667-14.166 19.75-15.5 30.25Zm178.341-60.25 9.75 2.25c-.17 1.167-2.58 6.25-7.25 15.25-4.5 8.833-9.33 20.5-14.5 35-5.165 14.333-8.499 28.833-9.999 43.5l-16-1.25c0-9.167 2.917-21 8.75-35.5-1.5-.167-4.583-.25-9.25-.25-4.5 0-12.833 1.083-25 3.25-8.5 19-12.75 35.25-12.75 48.75l-16.75-2.25c0-11.833 4.417-26.417 13.25-43.75-8.5 1.333-17 3.333-25.5 6l-2.5-9.75c0-.5 4.417-1.917 13.25-4.25 9-2.333 15.667-3.833 20-4.5 13.334-30.667 22.417-48.417 27.25-53.25l10.75 4.25c-.833 1.667-2.75 5.417-5.75 11.25-7.5 14.5-12.583 25.833-15.25 34 14.5-1.5 23.167-2.25 26-2.25 3 0 5.5.083 7.5.25 11.667-26.833 19.669-42.417 23.999-46.75Zm190.33 64.75 5.25 5c-9.5 17-20.42 25.5-32.75 25.5-5 0-8.92-1.333-11.75-4-2.67-2.833-4-6.5-4-11 0-4.667 2.75-12.583 8.25-23.75s8.41-19.667 8.75-25.5c.16-2.667-.67-4.833-2.5-6.5-1.67-1.667-4-2.5-7-2.5s-6.09.75-9.25 2.25c-3 1.333-6 3.583-9 6.75-2.84 3.167-5.5 6.25-8 9.25-2.34 3-5 7.25-8 12.75-2.84 5.5-5.25 10.083-7.25 13.75-3.5 6.833-8.5 17.083-15 30.75l-15-5.25c0-.5 2.75-9.917 8.25-28.25s8.25-29.25 8.25-32.75-.84-6-2.5-7.5c-1.67-1.667-3.75-2.5-6.25-2.5-7.5 0-17.92 9.333-31.25 28-13.17 18.667-21.59 34.583-25.25 47.75l-14.25-4.75c.83-8.833 4.75-24.667 11.75-47.5 7-23 12.91-38.667 17.75-47l11.25 4c-5.17 11.5-8.75 21.25-10.75 29.25-2 7.833-3.75 16.25-5.25 25.25 14.33-20.5 26.33-34.833 36-43 9.66-8.333 18.41-12.5 26.25-12.5 8.5 0 12.75 4.25 12.75 12.75 0 3.333-1.5 9.917-4.5 19.75-2.84 9.833-5.09 17.583-6.75 23.25 23-37 43.58-55.5 61.75-55.5 4.5 0 8.08 1.417 10.75 4.25 2.66 2.667 4 6.75 4 12.25 0 5.333-3.17 14.25-9.5 26.75-6.17 12.5-9.25 20.417-9.25 23.75 0 3.167.66 5.5 2 7 1.33 1.5 3 2.25 5 2.25 4.33 0 10-4.167 17-12.5Z"/></svg>